# xmcd CD database file
# Copyright (C) 1993-1998 Ti Kan
#
# Track frame offsets:
#	150
#	16977
#	34047
#	41620
#	54190
#	69955
#	78987
#	100700
#	123575
#	136920
#	153712
#	158650
#
# Disc length: 2283 seconds
#
# Revision: 2
# Processed by: cddbd v1.4b41PL1 Copyright (c) Steve Scherf et al.
# Submitted via: NotifyCDPlayer(CDDB) 1.51.2
#
DISCID=8c08e90c
DTITLE=Lightnin' Hopkins - Long Time
DYEAR=1900
DGENRE=
TTITLE0=Short haired woman
TTITLE1=Bottle it up and go
TTITLE2=Long time
TTITLE3=The foot race is on
TTITLE4=Prison blues come down on me
TTITLE5=Bunion stew
TTITLE6=Mama and Papa Hopkins
TTITLE7=Get off my toe
TTITLE8=Trouble in mind
TTITLE9=Gonna pull a party
TTITLE10=Till the gin runs out
TTITLE11=When the saints go marching in
EXTD=
EXTT0=
EXTT1=
EXTT2=
EXTT3=
EXTT4=
EXTT5=
EXTT6=
EXTT7=
EXTT8=
EXTT9=
EXTT10=
EXTT11=
PLAYORDER=
